<svg width="1014" height="447" viewBox="0 0 1014 447" fill="none" xmlns="http://www.w3.org/2000/svg">
<rect width="1014" height="447" fill="black" fill-opacity="0.86"/>
<circle cx="947" cy="322" r="3" fill="white"/>
<circle cx="864" cy="121" r="3" fill="white"/>
<circle cx="809" cy="69" r="3" fill="white"/>
<circle cx="953" cy="69" r="3" fill="white"/>
<circle cx="994" cy="409" r="3" fill="white"/>
<circle cx="1000" cy="195" r="3" fill="white"/>
<circle cx="976" cy="14" r="3" fill="white"/>
<circle cx="870" cy="3" r="3" fill="white"/>
<circle cx="861" cy="215" r="3" fill="white"/>
<circle cx="612" cy="20" r="3" fill="white"/>
<circle cx="407" cy="60" r="3" fill="white"/>
<circle cx="379" cy="337" r="3" fill="white"/>
<circle cx="170" cy="319" r="3" fill="white"/>
<circle cx="267" cy="229" r="3" fill="white"/>
<circle cx="240" cy="92" r="3" fill="white"/>
<circle cx="41" cy="418" r="3" fill="white"/>
<circle cx="17" cy="11" r="3" fill="white"/>
<circle cx="96" cy="144" r="3" fill="white"/>
<circle cx="11" cy="258" r="3" fill="white"/>
<circle cx="458" cy="183" r="3" fill="white"/>
<circle cx="668" cy="147" r="3" fill="white"/>
<circle cx="662" cy="375" r="3" fill="white"/>
<circle cx="754" cy="272" r="3" fill="white"/>
<circle cx="825" cy="351" r="3" fill="white"/>
<circle cx="885.5" cy="283.5" r="1.5" fill="white"/>
<circle cx="383.5" cy="225.5" r="1.5" fill="white"/>
<circle cx="715.5" cy="39.5" r="1.5" fill="white"/>
<circle cx="158.5" cy="65.5" r="1.5" fill="white"/>
<circle cx="520.5" cy="15.5" r="1.5" fill="white"/>
<circle cx="591.5" cy="178.5" r="1.5" fill="white"/>
<circle cx="182.5" cy="199.5" r="1.5" fill="white"/>
<circle cx="204.5" cy="404.5" r="1.5" fill="white"/>
<circle cx="283.5" cy="306.5" r="1.5" fill="white"/>
<circle cx="45.5" cy="67.5" r="1.5" fill="white"/>
<circle cx="36.5" cy="180.5" r="1.5" fill="white"/>
<circle cx="100.5" cy="233.5" r="1.5" fill="white"/>
<circle cx="77.5" cy="355.5" r="1.5" fill="white"/>
<circle cx="304.5" cy="38.5" r="1.5" fill="white"/>
<circle cx="492.5" cy="107.5" r="1.5" fill="white"/>
<circle cx="331.5" cy="151.5" r="1.5" fill="white"/>
<circle cx="328.5" cy="393.5" r="1.5" fill="white"/>
<circle cx="453.5" cy="347.5" r="1.5" fill="white"/>
<circle cx="565.5" cy="394.5" r="1.5" fill="white"/>
<circle cx="627.5" cy="96.5" r="1.5" fill="white"/>
<circle cx="643.5" cy="284.5" r="1.5" fill="white"/>
<circle cx="495.5" cy="253.5" r="1.5" fill="white"/>
<circle cx="788.5" cy="181.5" r="1.5" fill="white"/>
<circle cx="895.5" cy="64.5" r="1.5" fill="white"/>
<circle cx="971.5" cy="243.5" r="1.5" fill="white"/>
<circle cx="795.5" cy="435.5" r="1.5" fill="white"/>
<circle cx="882.5" cy="413.5" r="1.5" fill="white"/>
</svg>
